<svg width="512" height="512" viewBox="0 0 512 512" fill="none" xmlns="http://www.w3.org/2000/svg">
<rect width="512" height="512" rx="80" fill="white"/>
<rect x="279" y="197" width="29.26" height="117.04" rx="6.65" fill="#40C0E2"/>
<path d="M95.7599 175.56C95.7599 154.993 112.433 138.32 133 138.32H184.4V159.6H133C124.185 159.6 117.04 166.746 117.04 175.56L95.7599 175.56ZM184.4 226.96H106.4H184.4ZM95.7599 226.96V175.56C95.7599 154.993 112.433 138.32 133 138.32L133 159.6C124.185 159.6 117.04 166.746 117.04 175.56V226.96H95.7599ZM184.4 148.96V226.96V148.96Z" fill="#18181B"/>
<path d="M409.64 335.16C409.64 355.727 392.967 372.4 372.4 372.4L319.2 372.4L319.2 351.12L372.4 351.12C381.214 351.12 388.36 343.974 388.36 335.16L409.64 335.16ZM319.2 281.96L399 281.96L319.2 281.96ZM409.64 281.96L409.64 335.16C409.64 355.727 392.967 372.4 372.4 372.4L372.4 351.12C381.214 351.12 388.36 343.974 388.36 335.16L388.36 281.96L409.64 281.96ZM319.2 361.76L319.2 281.96L319.2 361.76Z" fill="#18181B"/>
<path d="M106.4 281.96L186.2 281.96L106.4 281.96ZM186.2 372.4L133 372.4C112.433 372.4 95.7599 355.727 95.7599 335.16L117.04 335.16C117.04 343.974 124.185 351.12 133 351.12L186.2 351.12L186.2 372.4ZM133 372.4C112.433 372.4 95.7599 355.727 95.7599 335.16L95.7599 281.96L117.04 281.96L117.04 335.16C117.04 343.974 124.185 351.12 133 351.12L133 372.4ZM186.2 281.96L186.2 361.76L186.2 281.96Z" fill="#18181B"/>
<path d="M399 228.8L319.2 228.8L399 228.8ZM319.2 138.36L372.4 138.36C392.967 138.36 409.64 155.033 409.64 175.6L388.36 175.6C388.36 166.786 381.214 159.64 372.4 159.64L319.2 159.64L319.2 138.36ZM372.4 138.36C392.967 138.36 409.64 155.033 409.64 175.6L409.64 228.8L388.36 228.8L388.36 175.6C388.36 166.786 381.214 159.64 372.4 159.64L372.4 138.36ZM319.2 228.8L319.2 149L319.2 228.8Z" fill="#18181B"/>
<rect x="170" y="197" width="39.9" height="117.04" rx="6.65" fill="#40C0E2"/>
<rect x="220" y="197" width="21.28" height="117.04" rx="6.65" fill="#40C0E2"/>
<rect x="318" y="197" width="15.96" height="117.04" rx="6.65" fill="#40C0E2"/>
</svg>
